# xmcd
# 
# Track frame offsets:
#     150
#     21370
#     42428
#     63648
# 
# Disc length: 1127
# 
# Revision: 1
# Processed by: cddbd v1.5.2PL0 Copyright (c) Steve Scherf et al.
# Submitted via: BonkEnc v1.0.8
# 
DISCID=34046504
DTITLE=GET IN THE RING - AWAKE
DYEAR=2011
DGENRE=Game
TTITLE0=STAR　CHASER
TTITLE1=神>>【穢=罪_咎】>祓.
TTITLE2=STAR　CHASER(Instrumental)
TTITLE3=神>>【穢=罪_咎】>祓.(Instrumental)
EXTD=
EXTT0=
EXTT1=
EXTT2=
EXTT3=
PLAYORDER=
